<svg class="svg-heart2" width="162" height="101" viewBox="0 0 162 101" fill="none" xmlns="http://www.w3.org/2000/svg">
<path class="svg-white" d="M9.09034 1.75783L151.535 2.43283C152.308 2.43662 152.454 2.84218 151.862 3.33898L91.6521 53.8464C91.6521 53.8464 85.9921 58.5941 80.6223 58.5293C75.2525 58.4645 70.5332 54.5459 70.5332 54.5459L8.76248 2.65122C8.17091 2.15442 8.31768 1.75452 9.09034 1.75783Z" fill="black" stroke="#000000" stroke-width="1.60208" stroke-miterlimit="10" stroke-linejoin="round"/>
<path class="svg-white" d="M104.945 49.4376L161 3.58008L160.823 91.0069L160.81 97.3305L104.994 53.7509C103.49 52.5767 103.468 50.6458 104.945 49.4376Z" fill="black" stroke="#000000" stroke-width="1.60208" stroke-miterlimit="10" stroke-linejoin="round"/>
<path class="svg-white" d="M57.055 49.4376L1 3.58008L1.17688 91.0069L1.18964 97.3305L57.0059 53.7509C58.5095 52.5767 58.5312 50.6458 57.055 49.4376Z" fill="black" stroke="#000000" stroke-width="1.60208" stroke-miterlimit="10" stroke-linejoin="round"/>
<path class="svg-white" d="M63.3171 55.0998C63.3171 55.0998 70.8423 64.4813 80.3127 64.3281C91.3335 64.1499 97.8008 54.7949 97.8008 54.7949L152 97.6967C153.082 98.5532 152.84 99.2457 151.46 99.2434L11.5333 99.0051C9.80248 99.0018 9.49538 98.1236 10.8473 97.043L63.3171 55.0998Z" fill="black" stroke="#000000" stroke-width="1.60208" stroke-miterlimit="10" stroke-linejoin="round"/>

<style>
    .svg-white {transition: .6s;}
    .svg-heart2:hover .svg-white {fill: #ffffff; stroke: #000000;}
</style>

</svg>
