<svg class="svg-heart2" width="138" height="125" viewBox="0 0 138 125" fill="none" xmlns="http://www.w3.org/2000/svg">
<path class="svg-white" d="M105.761 57.3594C88.7851 57.3594 75.0215 71.1633 75.0215 88.1809C75.0215 105.199 88.7851 118.991 105.761 118.991C122.736 118.991 136.5 105.199 136.5 88.1809C136.5 71.1633 122.736 57.3594 105.761 57.3594ZM104.046 71.018L107.984 70.9784L108.034 86.2352L123.257 86.2189L123.277 90.1786L108.008 90.1325L108.005 105.105L104.065 105.085L104.089 90.1794L88.985 90.1026L88.9599 86.167L104.065 86.2456L104.046 71.018Z" fill="black" stroke="black" stroke-width="1.60208" stroke-miterlimit="10" stroke-linejoin="round"/>
<path class="svg-white" d="M68.0448 14.3031C68.0448 14.3031 76.6784 1.89208 96.404 1.77214C116.13 1.65225 136.755 17.8814 134.789 40.2744C133.148 58.9565 127.296 60.5724 127.296 60.5724C127.296 60.5724 121.142 55.3684 111.028 53.7234C102.134 52.2771 89.4565 54.1287 80.7311 63.3827C62.4118 82.8119 72.9888 103.719 79.1725 112.107C79.288 112.264 68.0979 123.228 68.0979 123.228C68.0979 123.228 24.8722 78.9374 7.27116 59.5497C6.25814 58.4341 2.72227 53.3393 1.64283 44.2721C1.09844 39.699 1.90743 29.1429 7.65469 19.6429C13.3029 10.3065 25.1275 1.79024 40.9121 1.79024C58.8307 1.79024 68.0448 14.3031 68.0448 14.3031Z" fill="black" stroke="black" stroke-width="1.60208" stroke-miterlimit="10" stroke-linejoin="round"/>

<style>
    .svg-white {transition: .4s;}
    .svg-heart2:hover .svg-white {fill: #ffffff; stroke: #000000;}
</style>

</svg>
