<svg class="svg-heart2" width="53" height="48" viewBox="-1 -1 55 50" fill="none" xmlns="http://www.w3.org/2000/svg">
<path class="svg-white" d="M40.9317 21.8242C34.2673 21.8242 28.8638 27.2435 28.8638 33.9245C28.8638 40.6055 34.2673 46.0201 40.9317 46.0201C47.5962 46.0201 52.9997 40.6055 52.9997 33.9245C52.9997 27.2435 47.5962 21.8242 40.9317 21.8242ZM40.2584 27.1864L41.8046 27.1709L41.8244 33.1605L47.8008 33.1541L47.8083 34.7088L41.8141 34.6907L41.8128 40.5685L40.2661 40.5607L40.2756 34.7091L34.3457 34.6789L34.3358 33.1338L40.2661 33.1647L40.2584 27.1864Z" fill="#000000" stroke="#000000" stroke-linecap="round" stroke-linejoin="round" stroke-width=".5" />
<path class="svg-white" d="M26.1248 4.91979C26.1248 4.91979 29.5144 0.0473435 37.2584 0.000259122C45.0026 -0.0468139 53.0999 6.32459 52.3279 15.116C51.684 22.4502 49.3865 23.0848 49.3865 23.0848C49.3865 23.0848 46.9702 21.0415 42.9995 20.3959C39.5078 19.8281 34.531 20.5549 31.1055 24.1879C23.9135 31.8157 28.0659 40.0239 30.4934 43.3165C30.5389 43.3782 26.1458 47.6829 26.1458 47.6829C26.1458 47.6829 9.17572 30.2947 2.26569 22.6833C1.86799 22.2451 0.47985 20.245 0.0560786 16.6853C-0.157652 14.8901 0.159938 10.7458 2.41627 7.01613C4.63371 3.35074 9.27594 0.00736449 15.4729 0.00736449C22.5075 0.00736449 26.1248 4.91979 26.1248 4.91979Z" fill="#000000" stroke="#ffffff" stroke-linecap="round" stroke-linejoin="round" stroke-width=".5" />
<style>
    .svg-white {transition: .4s;}
    .svg-heart2:hover .svg-white {fill: #ffffff; stroke: #000000;}
</style>
</svg>
