<svg width="35" height="35" viewBox="0 0 35 35" fill="none" xmlns="http://www.w3.org/2000/svg">
<g clip-path="url(#clip0_1305_66)">
<path d="M34.2184 21.0743C31.0155 19.7477 31.0155 15.2109 34.2184 13.8844C34.6729 13.6961 34.8888 13.1748 34.7006 12.7203L33.0221 8.66835C32.8338 8.21387 32.3125 7.99796 31.858 8.1862C28.6551 9.51278 25.4472 6.30488 26.7742 3.10236C26.9624 2.64787 26.7465 2.12654 26.292 1.93829L22.2397 0.259425C21.7852 0.071177 21.2639 0.287086 21.0756 0.741571C19.7491 3.94448 15.2123 3.94448 13.8857 0.741571C13.6975 0.287086 13.1761 0.071177 12.7217 0.259425L8.66933 1.93791C8.21484 2.12615 7.99893 2.64749 8.18718 3.10197C9.51375 6.30488 6.30585 9.51278 3.10295 8.1862C2.64846 7.99796 2.12713 8.21387 1.93888 8.66835L0.260402 12.7203C0.0721536 13.1748 0.288063 13.6961 0.742547 13.8844C3.94545 15.2109 3.94545 19.7477 0.742547 21.0743C0.288063 21.2625 0.0721536 21.7839 0.260402 22.2383L1.93888 26.2903C2.12713 26.7448 2.64846 26.9607 3.10295 26.7724C6.30585 25.4459 9.51375 28.6538 8.1868 31.8567C7.99855 32.3111 8.21446 32.8325 8.66894 33.0207L12.7209 34.6992C13.1754 34.8875 13.6967 34.6716 13.8849 34.2171C15.2115 31.0142 19.7483 31.0142 21.0749 34.2171C21.2631 34.6716 21.7845 34.8875 22.2389 34.6992L26.2909 33.0207C26.7454 32.8325 26.9613 32.3111 26.773 31.8567C25.4465 28.6538 28.6544 25.4459 31.8573 26.7728C32.3117 26.9611 32.8331 26.7452 33.0213 26.2907L34.6998 22.2387C34.8888 21.7839 34.6729 21.2629 34.2184 21.0743ZM17.4805 24.7989C13.4381 24.7989 10.1611 21.5219 10.1611 17.4795C10.1611 13.4372 13.4381 10.1601 17.4805 10.1601C21.5228 10.1601 24.7999 13.4372 24.7999 17.4795C24.7999 21.5219 21.5228 24.7989 17.4805 24.7989Z" fill="black"/>
</g>
<defs>
<clipPath id="clip0_1305_66">
<rect width="35" height="35" fill="white"/>
</clipPath>
</defs>
</svg>
