<svg width="35" height="35" viewBox="0 0 35 35" fill="none" xmlns="http://www.w3.org/2000/svg">
<g clip-path="url(#clip0_1305_103)">
<path d="M17.8656 20.2076C17.7561 20.3063 17.6182 20.3555 17.4803 20.3555C17.3423 20.3555 17.2044 20.3063 17.0949 20.2076L15.1145 18.4262L9.31299 23.3214H25.6472L19.846 18.4258L17.8656 20.2076Z" fill="black"/>
<path d="M25.671 11.6367H9.28955L17.4803 19.0053L25.671 11.6367Z" fill="black"/>
<path d="M8.28711 12.2852V22.6772L14.2496 17.6483L8.28711 12.2852Z" fill="black"/>
<path d="M26.6739 22.6772V12.2852L20.7114 17.6483L26.6739 22.6772Z" fill="black"/>
<path d="M17.4805 0.191406C7.93245 0.191406 0.192383 7.93147 0.192383 17.4795C0.192383 27.0275 7.93245 34.7676 17.4805 34.7676C27.0285 34.7676 34.7686 27.0275 34.7686 17.4795C34.7686 7.93147 27.0285 0.191406 17.4805 0.191406ZM27.8253 22.8238C27.8253 23.7339 27.0846 24.4746 26.1745 24.4746H8.78648C7.87636 24.4746 7.13605 23.7339 7.13605 22.8238V12.1348C7.13605 11.2247 7.87636 10.4843 8.78648 10.4843H26.1745C27.0846 10.4843 27.8253 11.2247 27.8253 12.1348V22.8238Z" fill="black"/>
</g>
<defs>
<clipPath id="clip0_1305_103">
<rect width="35" height="35" fill="white"/>
</clipPath>
</defs>
</svg>
