<svg width="35" height="35" viewBox="0 0 35 35" fill="none" xmlns="http://www.w3.org/2000/svg">
<path d="M26.3788 4.1875H8.58203C6.51515 4.1875 4.83936 5.86329 4.83936 7.93018V9.10769H30.1215V7.93018C30.1215 5.86329 28.4457 4.1875 26.3788 4.1875Z" fill="black"/>
<path d="M22.3317 5.7501H12.6292C12.2051 5.7501 11.8608 5.40588 11.8608 4.98174C11.8608 2.34012 14.0096 0.191406 16.6508 0.191406H18.3097C20.9509 0.191406 23.1 2.34012 23.1 4.98174C23.1 5.40588 22.7558 5.7501 22.3317 5.7501ZM13.489 4.21338H21.4719C21.1253 2.78885 19.8395 1.72813 18.3097 1.72813H16.6508C15.1214 1.72813 13.8351 2.78885 13.489 4.21338Z" fill="black"/>
<path d="M6.39844 10.6953L7.7642 34.0166C7.78878 34.4372 8.13685 34.7657 8.5583 34.7657H26.4031C26.8245 34.7657 27.1726 34.4372 27.1975 34.0169L28.5629 10.6957L6.39844 10.6953Z" fill="black"/>
</svg>
