<svg width="35" height="35" viewBox="0 0 35 35" fill="none" xmlns="http://www.w3.org/2000/svg">
<path d="M17.5 35C7.8505 35 0 27.1495 0 17.5C0 7.8505 7.8505 0 17.5 0C27.1495 0 35 7.8505 35 17.5C35 27.1495 27.1495 35 17.5 35ZM17.5 1.55556C8.70839 1.55556 1.55556 8.70839 1.55556 17.5C1.55556 26.2916 8.70839 33.4444 17.5 33.4444C26.2916 33.4444 33.4444 26.2916 33.4444 17.5C33.4444 8.70839 26.2916 1.55556 17.5 1.55556Z" fill="black"/>
<path d="M12.0558 15.7678C13.1297 15.7678 14.0002 14.8972 14.0002 13.8234C14.0002 12.7495 13.1297 11.8789 12.0558 11.8789C10.9819 11.8789 10.1113 12.7495 10.1113 13.8234C10.1113 14.8972 10.9819 15.7678 12.0558 15.7678Z" fill="black"/>
<path d="M22.9444 15.7678C24.0183 15.7678 24.8889 14.8972 24.8889 13.8234C24.8889 12.7495 24.0183 11.8789 22.9444 11.8789C21.8706 11.8789 21 12.7495 21 13.8234C21 14.8972 21.8706 15.7678 22.9444 15.7678Z" fill="black"/>
<path d="M17.4998 26.9661C14.4066 26.9661 11.5354 25.4226 9.81884 22.8372C9.58123 22.4794 9.67884 21.9964 10.0366 21.7592C10.3944 21.5208 10.8774 21.6192 11.1146 21.977C12.5422 24.1272 14.9292 25.4109 17.4998 25.4109C20.0703 25.4109 22.4573 24.1272 23.8849 21.977C24.1222 21.6188 24.6044 21.5208 24.9629 21.7592C25.3207 21.9964 25.4183 22.4798 25.1807 22.8372C23.4642 25.4226 20.5926 26.9661 17.4998 26.9661Z" fill="black"/>
</svg>
