<svg width="35" height="35" viewBox="0 0 35 35" fill="none" xmlns="http://www.w3.org/2000/svg">
<g clip-path="url(#clip0_1305_427)">
<path d="M17.4805 0.191406C7.93245 0.191406 0.192383 7.93147 0.192383 17.4795C0.192383 27.0275 7.93245 34.7676 17.4805 34.7676C27.0285 34.7676 34.7686 27.0275 34.7686 17.4795C34.7686 7.93147 27.0285 0.191406 17.4805 0.191406ZM27.3981 17.0066L17.8808 26.5238C16.6756 27.729 15.0924 28.3314 13.5092 28.3314C11.926 28.3314 10.3428 27.729 9.13762 26.5238C7.9701 25.3563 7.32698 23.8039 7.32698 22.1523C7.32698 20.5014 7.9701 18.9486 9.13762 17.7807L18.8612 8.0571C20.7694 6.14927 23.8728 6.14926 25.7799 8.05672C26.5402 8.81662 26.9586 9.82702 26.9586 10.902C26.9586 11.9769 26.5402 12.9873 25.7799 13.7472L15.5077 24.0202C14.4416 25.0859 12.7074 25.0859 11.6417 24.0202C11.1254 23.5038 10.8411 22.8177 10.8411 22.0873C10.8411 21.357 11.1254 20.6705 11.6417 20.1542L21.0941 10.7018C21.4083 10.3875 21.917 10.3875 22.2312 10.7018C22.5455 11.0157 22.5455 11.5251 22.2312 11.839L12.7785 21.2909C12.566 21.5038 12.4489 21.7865 12.4489 22.0873C12.4489 22.3882 12.566 22.6705 12.7785 22.8834C13.2176 23.3225 13.9318 23.3225 14.3705 22.8834L24.6431 12.6108C25.0995 12.1544 25.3508 11.5478 25.3508 10.9027C25.3508 10.2573 25.0995 9.65068 24.6431 9.19466C23.3626 7.91419 21.28 7.9138 19.9988 9.19427L10.2748 18.9182C9.41077 19.7823 8.93516 20.9313 8.93516 22.1527C8.93516 23.3743 9.41077 24.5234 10.2748 25.3871C12.0585 27.1704 14.9599 27.1704 16.7436 25.3871L26.2609 15.8694C26.5752 15.5551 27.0838 15.5551 27.3981 15.8694C27.7123 16.1833 27.7123 16.6923 27.3981 17.0066Z" fill="black"/>
</g>
<defs>
<clipPath id="clip0_1305_427">
<rect width="35" height="35" fill="white"/>
</clipPath>
</defs>
</svg>
