<svg width="36" height="36" viewBox="0 0 36 36" fill="none" xmlns="http://www.w3.org/2000/svg">
<mask id="mask0_1314_51" style="mask-type:luminance" maskUnits="userSpaceOnUse" x="0" y="0" width="384" height="384">
<path d="M384 0H0V384H384V0Z" fill="white"/>
</mask>
<g mask="url(#mask0_1314_51)">
<path d="M0.108887 17.5034C0.108887 7.90557 7.88946 0.125 17.4873 0.125C27.0851 0.125 34.8656 7.90557 34.8656 17.5034C34.8656 27.1012 27.0851 34.8818 17.4873 34.8818C7.88946 34.8818 0.108887 27.1012 0.108887 17.5034Z" fill="#D5D1D1" stroke="#D5D1D1" stroke-width="1.60208" stroke-miterlimit="10" stroke-linejoin="round"/>
<path d="M14.7075 8.36299C14.7075 6.84435 15.9386 5.61328 17.4572 5.61328C18.9759 5.61328 20.2069 6.84435 20.2069 8.36299C20.2069 9.88157 18.9759 11.1127 17.4572 11.1127C15.9386 11.1127 14.7075 9.88157 14.7075 8.36299Z" fill="white" stroke="white" stroke-width="1.60208" stroke-miterlimit="10" stroke-linejoin="round"/>
<path d="M13.2544 14.3605C13.2544 14.3605 15.4714 14.1151 16.3262 13.8907C17.181 13.6662 19.4938 12.8125 19.4938 12.8125L20.0078 13.0776L20.0282 26.4264C20.0282 26.4264 19.9938 27.2381 20.2199 27.6395C20.6239 28.3565 21.9169 28.2173 21.9169 28.2173L21.925 29.4888L13.2919 29.5212L13.2783 28.2305C13.2783 28.2305 14.7786 28.3059 15.1407 27.62C15.3094 27.3002 15.3139 26.6918 15.3151 26.2916C15.3158 26.0658 15.3191 17.2998 15.3191 17.2998C15.3191 17.2998 15.3363 16.3437 15.0369 15.9656C14.6817 15.5168 13.2614 15.6078 13.2614 15.6078L13.2544 14.3605Z" fill="white" stroke="white" stroke-width="1.60208" stroke-miterlimit="10" stroke-linejoin="round"/>
</g>
</svg>
