<svg class="svg-plus" width="45" height="45" viewBox="-1 -1 47 47" fill="none" xmlns="http://www.w3.org/2000/svg">
<path class="svg-white" fill-rule="evenodd" clip-rule="evenodd" d="M22.4998 0C34.9263 0 45 10.0733 45 22.4995C45 34.926 34.9263 44.9993 22.4998 44.9993C10.0736 44.9996 0 34.926 0 22.4995C0 10.0733 10.0736 0 22.4998 0ZM29.9261 13.2662C30.4253 12.7671 31.2342 12.7671 31.7337 13.2662C32.2329 13.7654 32.2329 14.5747 31.7337 15.0739L24.3071 22.4995L31.7334 29.9254C32.2325 30.4246 32.2325 31.2339 31.7334 31.7334C31.2342 32.2322 30.4253 32.2322 29.9258 31.7334L22.4998 24.3074L15.0739 31.7334C14.5751 32.2322 13.7654 32.2322 13.2662 31.7334C12.7671 31.2342 12.7671 30.4249 13.2662 29.9254L20.6922 22.4995L13.2662 15.0739C12.7671 14.5747 12.7671 13.7654 13.2662 13.2662C13.7654 12.7671 14.5747 12.7671 15.0739 13.2662L22.4998 20.6922L29.9261 13.2662Z" fill="#000000" stroke="#000000" stroke-linecap="round" stroke-linejoin="round" stroke-width=".5" />
<style>
    .svg-white {transition: .4s;}
    .svg-plus:hover .svg-white {fill: #ffffff;}
</style>
</svg>
