<svg width="35" height="35" viewBox="0 0 35 35" fill="none" xmlns="http://www.w3.org/2000/svg">
<path d="M17.5002 18.9583C21.5272 18.9583 24.7918 15.6937 24.7918 11.6667C24.7918 7.63959 21.5272 4.375 17.5002 4.375C13.4731 4.375 10.2085 7.63959 10.2085 11.6667C10.2085 15.6937 13.4731 18.9583 17.5002 18.9583Z" fill="black" stroke="black" stroke-width="2" stroke-linecap="round" stroke-linejoin="round"/>
<path d="M29.1668 30.6237C29.1668 27.5295 27.9377 24.562 25.7497 22.3741C23.5618 20.1862 20.5944 18.957 17.5002 18.957C14.406 18.957 11.4385 20.1862 9.25058 22.3741C7.06266 24.562 5.8335 27.5295 5.8335 30.6237" stroke="black" stroke-width="2" stroke-linecap="round" stroke-linejoin="round"/>
<path d="M17.5002 18.957C14.406 18.957 11.4385 20.1862 9.25058 22.3741C7.06266 24.562 5.8335 27.5295 5.8335 30.6237H29.1668C29.1668 27.5295 27.9377 24.562 25.7497 22.3741C23.5618 20.1862 20.5944 18.957 17.5002 18.957Z" fill="black" stroke="black" stroke-width="2" stroke-linecap="round" stroke-linejoin="round"/>
</svg>
